<?xml version="1.0" encoding="UTF-8" standalone="no"?>
<svg
   version="1.0"
   width="57pt"
   height="59pt"
   viewBox="0 0 57 59"
   preserveAspectRatio="xMidYMid"
   id="svg1"
   xmlns="http://www.w3.org/2000/svg"
   xmlns:svg="http://www.w3.org/2000/svg">
  <defs
     id="defs1" />
  <metadata
     id="metadata1">
Created by potrace 1.10, written by Peter Selinger 2001-2011
</metadata>
  <path
     style="fill:#f9c264;fill-opacity:1;stroke:#000000;stroke-width:1.95;stroke-linecap:round;stroke-linejoin:round;stroke-dasharray:none;stroke-opacity:1;paint-order:normal"
     id="path2"
     d="m 50.615439,19.494368 c 0.370758,1.173115 -7.129505,7.113046 -7.519095,8.280042 -0.38959,1.166996 2.038219,10.421318 1.037091,11.136442 -1.001129,0.715124 -8.968048,-4.58251 -10.198317,-4.592411 -1.230269,-0.0099 -9.281418,5.158826 -10.270907,4.427682 -0.989489,-0.731144 1.586947,-9.945194 1.216189,-11.118309 -0.370758,-1.173115 -7.77445,-7.232988 -7.38486,-8.399984 0.38959,-1.166996 9.948834,-1.563958 10.949963,-2.279082 1.001128,-0.715124 4.476543,-9.6290578 5.706812,-9.619157 1.230269,0.0099 4.561771,8.978614 5.55126,9.709758 0.989489,0.731144 10.541107,1.281904 10.911864,2.455019 z"
     transform="translate(-5.5540275,6.3300239)" />
</svg>
